:FULLY-SPECIFIED
:FORCE-ALL-JOINTS-BE-3DOF
:DEGREES
306
root 9.15927 15.3955 -23.6993 13.9937 62.1208 18.6991
lfemur -16.2181 18.1738 -18.2722
ltibia 53.696 0 0
lfoot -15.2248 -28.242 0
ltoes 58.2317 0 0
rfemur -50.153 -17.5155 35.1716
rtibia 55.7502 0 0
rfoot 17.6326 8.43751 0
rtoes 24.8233 0 0
lowerback 9.20344 -3.446 -8.77215
upperback 5.09146 -5.0761 -4.03046
thorax 0.593974 -2.58069 1.11411
lowerneck -5.18595 -10.711 -2.97482
upperneck -1.26821 -14.2505 10.2717
head 1.54519 -6.98412 3.29859
lclavicle 7.96382e-14 -5.77345e-14 0
lhumerus -41.3028 -40.1183 98.0602
lradius 59.8296 0 0
lwrist 22.3295 0 0
lhand 13.1126 11.6644 0
lfingers 7.12502 0 0
lthumb 38.0772 37.4729 0
rclavicle 7.96382e-14 -5.77345e-14 0
rhumerus -59.929 66.9487 -94.8959
rradius 80.871 0 0
rwrist 8.97795 0 0
rhand -4.6189 -8.07456 0
rfingers 7.12502 0 0
rthumb 21.1593 -760.36 0
307
root 9.15293 15.4021 -23.6238 14.0004 61.8148 18.6768
lfemur -16.4041 18.1917 -18.3033
ltibia 53.8475 0 0
lfoot -15.0967 -28.0583 0
ltoes 57.9515 0 0
rfemur -50.1568 -17.556 35.3246
rtibia 55.9429 0 0
rfoot 17.7626 8.30825 0
rtoes 24.773 0 0
lowerback 9.23701 -3.40692 -8.76233
upperback 5.09675 -5.02443 -4.00321
thorax 0.582384 -2.55485 1.13531
lowerneck -5.16207 -10.6867 -2.9592
upperneck -1.2629 -14.2167 10.2535
head 1.54151 -6.96768 3.29156
lclavicle 7.93171e-14 -5.75477e-14 0
lhumerus -41.2483 -39.9611 97.9547
lradius 59.8085 0 0
lwrist 22.2952 0 0
lhand 12.8141 11.5318 0
lfingers 7.12502 0 0
lthumb 37.7976 37.4284 0
rclavicle 7.93171e-14 -5.75477e-14 0
rhumerus -60.0993 66.9356 -95.2632
rradius 80.8637 0 0
rwrist 9.12925 0 0
rhand -4.67641 -7.97338 0
rfingers 7.12502 0 0
rthumb 21.1039 -761.872 0
308
root 9.14448 15.4089 -23.5458 14.0173 61.4585 18.661
lfemur -16.5902 18.2045 -18.3274
ltibia 53.9867 0 0
lfoot -14.9692 -27.8579 0
ltoes 57.652 0 0
rfemur -50.151 -17.6016 35.4689
rtibia 56.1445 0 0
rfoot 17.8808 8.17508 0
rtoes 24.739 0 0
lowerback 9.26674 -3.36484 -8.74857
upperback 5.10007 -4.96855 -3.97645
thorax 0.570694 -2.52689 1.15346
lowerneck -5.1395 -10.6556 -2.9381
upperneck -1.25587 -14.1745 10.2312
head 1.53814 -6.94698 3.28263
lclavicle 7.89407e-14 -5.73403e-14 0
lhumerus -41.198 -39.7975 97.8491
lradius 59.7836 0 0
lwrist 22.2625 0 0
lhand 12.5096 11.401 0
lfingers 7.12502 0 0
lthumb 37.5119 37.3843 0
rclavicle 7.89407e-14 -5.73403e-14 0
rhumerus -60.2572 66.8903 -95.6151
rradius 80.8427 0 0
rwrist 9.27439 0 0
rhand -4.74152 -7.88212 0
rfingers 7.12502 0 0
rthumb 21.0412 -763.327 0
309
root 9.13396 15.4158 -23.4653 14.0443 61.0531 18.6514
lfemur -16.7762 18.2121 -18.3445
ltibia 54.1138 0 0
lfoot -14.8423 -27.6411 0
ltoes 57.3337 0 0
rfemur -50.1361 -17.6522 35.6046
rtibia 56.3547 0 0
rfoot 17.9874 8.03808 0
rtoes 24.7209 0 0
lowerback 9.29273 -3.31985 -8.73095
upperback 5.10145 -4.90856 -3.95018
thorax 0.558902 -2.49686 1.16862
lowerneck -5.11821 -10.618 -2.91164
upperneck -1.24715 -14.1239 10.205
head 1.53507 -6.92211 3.27185
lclavicle 7.85102e-14 -5.71128e-14 0
lhumerus -41.1517 -39.6275 97.7435
lradius 59.755 0 0
lwrist 22.2313 0 0
lhand 12.1993 11.2719 0
lfingers 7.12502 0 0
lthumb 37.2204 37.3408 0
rclavicle 7.85102e-14 -5.71128e-14 0
rhumerus -60.4028 66.8137 -95.9519
rradius 80.8085 0 0
rwrist 9.41348 0 0
rhand -4.81406 -7.8006 0
rfingers 7.12502 0 0
rthumb 20.9713 -764.726 0
310
root 9.1214 15.4229 -23.3823 14.0808 60.5997 18.6476
lfemur -16.962 18.2146 -18.3548
ltibia 54.2289 0 0
lfoot -14.716 -27.4082 0
ltoes 56.9971 0 0
rfemur -50.1121 -17.7076 35.7317
rtibia 56.5734 0 0
rfoot 18.0827 7.89737 0
rtoes 24.7183 0 0
lowerback 9.31503 -3.27199 -8.70955
upperback 5.10095 -4.84456 -3.92439
thorax 0.547011 -2.46481 1.18085
lowerneck -5.09819 -10.5738 -2.87992
upperneck -1.23676 -14.0651 10.1747
head 1.5323 -6.89314 3.25924
lclavicle 7.80267e-14 -5.68656e-14 0
lhumerus -41.1094 -39.4514 97.6379
lradius 59.7229 0 0
lwrist 22.2017 0 0
lhand 11.8833 11.1446 0
lfingers 7.12502 0 0
lthumb 36.9231 37.2978 0
rclavicle 7.80267e-14 -5.68656e-14 0
rhumerus -60.5364 66.7061 -96.2738
rradius 80.7613 0 0
rwrist 9.54659 0 0
rhand -4.89384 -7.72863 0
rfingers 7.12502 0 0
rthumb 20.8945 -766.07 0
311
root 9.10685 15.4302 -23.2969 14.1265 60.0994 18.6495
lfemur -17.1478 18.2122 -18.3585
ltibia 54.3323 0 0
lfoot -14.5905 -27.1597 0
ltoes 56.6424 0 0
rfemur -50.0793 -17.7677 35.8504
rtibia 56.8002 0 0
rfoot 18.1669 7.75307 0
rtoes 24.7308 0 0
lowerback 9.33371 -3.22134 -8.68443
upperback 5.09858 -4.77662 -3.89907
thorax 0.535019 -2.43079 1.19021
lowerneck -5.07943 -10.5234 -2.84306
upperneck -1.22473 -13.9984 10.1407
head 1.52983 -6.86019 3.24485
lclavicle 7.74914e-14 -5.6599e-14 0
lhumerus -41.071 -39.2691 97.5323
lradius 59.6873 0 0
lwrist 22.1735 0 0
lhand 11.5618 11.019 0
lfingers 7.12502 0 0
lthumb 36.6204 37.2553 0
rclavicle 7.74914e-14 -5.6599e-14 0
rhumerus -60.658 66.5685 -96.5811
rradius 80.7014 0 0
rwrist 9.67382 0 0
rhand -4.98066 -7.66603 0
rfingers 7.12502 0 0
rthumb 20.8109 -767.36 0
312
root 9.09035 15.4376 -23.2091 14.181 59.5533 18.6565
lfemur -17.3335 18.2049 -18.3556
ltibia 54.4243 0 0
lfoot -14.4656 -26.8958 0
ltoes 56.2702 0 0
rfemur -50.0379 -17.8323 35.9609
rtibia 57.0352 0 0
rfoot 18.2401 7.60526 0
rtoes 24.7581 0 0
lowerback 9.34885 -3.16796 -8.65568
upperback 5.09439 -4.70486 -3.87421
thorax 0.522928 -2.39483 1.19676
lowerneck -5.0619 -10.4668 -2.80118
upperneck -1.21107 -13.9239 10.1028
head 1.52767 -6.82333 3.22871
lclavicle 7.69053e-14 -5.63134e-14 0
lhumerus -41.0364 -39.0811 97.4268
lradius 59.6482 0 0
lwrist 22.1468 0 0
lhand 11.235 10.8951 0
lfingers 7.12502 0 0
lthumb 36.3123 37.2133 0
rclavicle 7.69053e-14 -5.63134e-14 0
rhumerus -60.7679 66.4012 -96.8739
rradius 80.6291 0 0
rwrist 9.79526 0 0
rhand -5.07436 -7.61263 0
rfingers 7.12502 0 0
rthumb 20.7207 -768.596 0
313
root 9.07195 15.4453 -23.119 14.2439 58.9625 18.6684
lfemur -17.5189 18.1927 -18.3463
ltibia 54.5049 0 0
lfoot -14.3415 -26.6169 0
ltoes 55.8807 0 0
rfemur -49.988 -17.9013 36.0632
rtibia 57.2779 0 0
rfoot 18.3025 7.45407 0
rtoes 24.7999 0 0
lowerback 9.36052 -3.11192 -8.62336
upperback 5.0884 -4.62934 -3.84978
thorax 0.510737 -2.35699 1.20055
lowerneck -5.04558 -10.4042 -2.7544
upperneck -1.19582 -13.8418 10.0613
head 1.5258 -6.78266 3.21086
lclavicle 7.62695e-14 -5.60094e-14 0
lhumerus -41.0057 -38.8873 97.3214
lradius 59.6058 0 0
lwrist 22.1214 0 0
lhand 10.903 10.7729 0
lfingers 7.12502 0 0
lthumb 35.9991 37.1717 0
rclavicle 7.62695e-14 -5.60094e-14 0
rhumerus -60.8664 66.2051 -97.1526
rradius 80.5447 0 0
rwrist 9.91098 0 0
rhand -5.17473 -7.56825 0
rfingers 7.12502 0 0
rthumb 20.6241 -769.78 0
314
root 9.05167 15.453 -23.0266 14.3148 58.3282 18.6849
lfemur -17.7042 18.1757 -18.3307
ltibia 54.5745 0 0
lfoot -14.2181 -26.3234 0
ltoes 55.4745 0 0
rfemur -49.93 -17.9746 36.1574
rtibia 57.5281 0 0
rfoot 18.3545 7.2996 0
rtoes 24.8556 0 0
lowerback 9.36879 -3.05328 -8.58756
upperback 5.08067 -4.55018 -3.82579
thorax 0.498447 -2.31731 1.20166
lowerneck -5.03046 -10.3356 -2.70284
upperneck -1.17899 -13.7523 10.0162
head 1.52422 -6.73828 3.19133
lclavicle 7.55853e-14 -5.56871e-14 0
lhumerus -40.9787 -38.6879 97.2162
lradius 59.56 0 0
lwrist 22.0974 0 0
lhand 10.5661 10.6523 0
lfingers 7.12502 0 0
lthumb 35.6809 37.1305 0
rclavicle 7.55853e-14 -5.56871e-14 0
rhumerus -60.9534 65.9807 -97.4173
rradius 80.4486 0 0
rwrist 10.0211 0 0
rhand -5.28161 -7.5327 0
rfingers 7.12502 0 0
rthumb 20.5213 -770.912 0
315
root 9.02957 15.461 -22.932 14.3932 57.6514 18.7057
lfemur -17.8892 18.154 -18.3091
ltibia 54.6333 0 0
lfoot -14.0954 -26.0157 0
ltoes 55.0519 0 0
rfemur -49.8639 -18.0521 36.2437
rtibia 57.7858 0 0
rfoot 18.3961 7.14196 0
rtoes 24.9251 0 0
lowerback 9.37372 -2.99211 -8.54834
upperback 5.07121 -4.46746 -3.80223
thorax 0.486058 -2.27584 1.20013
lowerneck -5.01652 -10.2614 -2.6466
upperneck -1.16061 -13.6555 9.96747
head 1.52294 -6.69026 3.17017
lclavicle 7.48537e-14 -5.53471e-14 0
lhumerus -40.9553 -38.4832 97.1111
lradius 59.5111 0 0
lwrist 22.0747 0 0
lhand 10.2244 10.5334 0
lfingers 7.12502 0 0
lthumb 35.3578 37.0898 0
rclavicle 7.48537e-14 -5.53471e-14 0
rhumerus -61.0293 65.7288 -97.6682
rradius 80.341 0 0
rwrist 10.1257 0 0
rhand -5.39479 -7.50582 0
rfingers 7.12502 0 0
rthumb 20.4124 -771.993 0
316
root 9.00568 15.4691 -22.8352 14.4789 56.9333 18.7304
lfemur -18.0739 18.1276 -18.2815
ltibia 54.6815 0 0
lfoot -13.9736 -25.6941 0
ltoes 54.6133 0 0
rfemur -49.7899 -18.1335 36.3222
rtibia 58.0506 0 0
rfoot 18.4276 6.98125 0
rtoes 25.0079 0 0
lowerback 9.37539 -2.92848 -8.50578
upperback 5.06007 -4.38126 -3.77907
thorax 0.473571 -2.23262 1.19603
lowerneck -5.00375 -10.1815 -2.5858
upperneck -1.14071 -13.5517 9.91534
head 1.52196 -6.63871 3.14741
lclavicle 7.40759e-14 -5.49898e-14 0
lhumerus -40.9355 -38.2733 97.0064
lradius 59.4591 0 0
lwrist 22.0532 0 0
lhand 9.87816 10.4161 0
lfingers 7.12502 0 0
lthumb 35.0302 37.0495 0
rclavicle 7.40759e-14 -5.49898e-14 0
rhumerus -61.0943 65.4498 -97.9057
rradius 80.2223 0 0
rwrist 10.2248 0 0
rhand -5.5141 -7.48741 0
rfingers 7.12502 0 0
rthumb 20.2976 -773.024 0
317
root 8.98004 15.4773 -22.7363 14.5713 56.175 18.7588
lfemur -18.2584 18.0967 -18.2482
ltibia 54.7193 0 0
lfoot -13.8526 -25.3589 0
ltoes 54.1591 0 0
rfemur -49.7084 -18.2188 36.393
rtibia 58.3224 0 0
rfoot 18.4492 6.81758 0
rtoes 25.1036 0 0
lowerback 9.37387 -2.86245 -8.45996
upperback 5.04728 -4.29169 -3.75632
thorax 0.460985 -2.1877 1.18942
lowerneck -4.99211 -10.0962 -2.52057
upperneck -1.1193 -13.441 9.85984
head 1.52126 -6.58371 3.12308
lclavicle 7.32529e-14 -5.46154e-14 0
lhumerus -40.9192 -38.0583 96.9019
lradius 59.404 0 0
lwrist 22.0329 0 0
lhand 9.52748 10.3004 0
lfingers 7.12502 0 0
lthumb 34.6981 37.0097 0
rclavicle 7.32529e-14 -5.46154e-14 0
rhumerus -61.1484 65.1445 -98.1298
rradius 80.0928 0 0
rwrist 10.3185 0 0
rhand -5.63935 -7.47731 0
rfingers 7.12502 0 0
rthumb 20.177 -774.006 0
